<svg height='100px' width='100px'  fill="#30ED3A" xmlns="http://www.w3.org/2000/svg" xmlns:xlink="http://www.w3.org/1999/xlink" version="1.1" x="0px" y="0px" viewBox="0 0 612 792" enable-background="new 0 0 612 792" xml:space="preserve"><path d="M145.436,450.8c5.892-9.975,11.988-19.983,18.323-29.934c4.95,1.221,11.236-0.313,16.133-3.521  c-3.245,0.525-6.562,0.142-9.216-1.393c-0.086,0.045,6.482,0.42,14.396-2.521c5.317-4.762,9.311-10.59,12.531-16.071  c-4.852,5.106-12.345,12.047-23.681,15.221c-0.022,0.012,4.899-2.301,10.604-6.777c5.746-4.391,12.218-10.557,16.865-15.354  c1.248-2.406,2.377-4.656,3.407-6.688c-5.233,4.427-12.481,11.849-21.627,18.752c2.599-2.438,14.802-15.951,23.285-21.99  c2.255-4.36,3.995-7.044,3.984-7.063c-9.671,3.113-16.95,9.216-22.509,14.318c-2.658,2.514-4.965,4.944-7.012,7.252  c9.27-13.347,19.04-26.422,29.422-38.976c19.301-23.448,40.861-44.942,64.128-62.939c7.39,0.466,15.719-0.506,23.992-2.241  c-5.105-0.286-9.792-1.193-13.199-3.111c-0.037,0.078,10.503,0.872,24.046,0.598c11.931-3.022,23.842-6.559,34.973-8.242  c-12.764,0.188-29.771,3.047-50.69,4.417c0.981-0.128,10.665-1.986,23.168-4.095c13.169-2.242,29.606-3.711,41.368-1.389  c4.788,0.043,9.273,0.586,13.282,1.506c-11.452-6.013-31.552-7.41-53.605-3.805c1.365-0.277,10.733-2.521,22.671-3.23  c6.446-0.333,13.637,0.032,20.293,1.539c6.654,1.541,12.633,4.33,16.969,7.401c8.535,3.076,13.314,6.899,13.386,6.727  c-10.106-15.464-29.131-22.745-44.722-22.729c-15.852-0.383-28.942,3.42-39.539,6.895c-3.338,1.192-6.464,2.363-9.389,3.5  c29.538-19.002,60.959-32.111,90.799-39.92c2.035-0.539,4.063-1.051,6.082-1.545c2.127-0.029,4.215,0.015,6.225,0.178  c-1.069-0.287-2.208-0.569-3.402-0.845c1.561-0.368,3.114-0.724,4.661-1.067c2.789,0.965,5.299,2.121,7.279,3.463  c2.813,0.877,5.25,2.154,7.215,3.759c-1.589-3.08-4.958-5.95-9.524-8.286c0.845-0.174,1.685-0.342,2.522-0.51  c5.114,2.994,9.195,7.307,9.921,11.744c3.676,4.623,4.299,9.096,4.473,8.963c1.758-6.025,1.038-13.299-2.981-18.916  c-0.851-1.24-1.802-2.365-2.816-3.397c20.017-3.491,38.757-5.103,55.354-5.928c8.754-0.345,16.922-0.521,24.44-0.582  c7.017,4.101,17.55,4.275,26.143,4.489c-3.391-1.195-6.738-2.58-9.344-4.436c1.006,0.015,1.993,0.031,2.965,0.049  c3.807,0.973,9.521,2.6,15.033,5.217c9.949,1.433,20.072,4.057,28.66,8.346c-6.567-4.4-15.345-9.382-26.785-13.037  c2.487,0.109,4.747,0.223,6.771,0.332c11.223,3.429,23.511,11.041,30.135,19.043c3.267,2.574,6.035,5.412,8.283,8.252  c-3.593-8.779-13.194-19.513-27.646-26.647c0.952,0.052,1.44,0.062,1.438,0.011c-0.615-0.07-1.229-0.137-1.843-0.205  c-2.53-1.23-5.204-2.352-8.021-3.33c1.097,0.321,9.652,2.439,18.742,8.225c10.009,5.895,18.749,17.449,20.653,26.746  c4.113,6.883,5.34,12.211,5.446,12.139c2.493-16.295-6.122-32.766-17.661-41.473c-8.331-6.604-17.369-10.166-25.746-11.928  c0.227-0.123,0.456-0.24,0.68-0.365c-0.34,0.102-0.688,0.197-1.039,0.292c-2.412-0.494-4.77-0.839-7.035-1.065  c4.979-0.754,10.199-1.824,14.535-3.35c2.155-1.567,4.105-3.119,5.754-4.662c-6.499,2.457-16.126,4.617-26.956,5.415  c0.035,0.026,18.862-4.147,29.534-7.901c3.385-3.445,5.008-6.024,5.045-5.974c-18.314,3.071-30.703,4.91-40.667,9.347  c-8.729,3.66-14.411,8.426-17.087,11.272c-4.781,1.313-8.299,2.042-10.663,2.22c3.092,0.151,6.164-0.078,9.232-0.483  c-0.041,0.022-0.089,0.047-0.132,0.068c-0.293,0.37-0.437,0.577-0.437,0.577c0.258,0.109,0.516,0.213,0.774,0.314  c-0.258,0.023-0.512,0.047-0.764,0.066c-29.724-1.555-58.73-1.021-86.673,2.697c-2.673,0.338-5.334,0.707-7.983,1.107  c-1.795-0.994-3.629-1.807-5.415-2.455c8.992-1.426,18.118-4.453,26.401-6.991c-6.182-0.88-12.898-1.96-18.654-4.908  c0.112-0.021,14.26-0.306,31.233,0.938c13.938-4.512,28.396-9.283,42.353-13.134c-16.428,1.407-37.256,2.313-64.656,5.239  c-0.002,0.012,12.613-3.914,29.297-6.531c16.669-2.88,37.284-3.585,52.943-3.193c6.164-1.379,12.036-2.643,17.396-3.529  c-16.671-2.506-41.602-4.09-70.216-0.295c-0.024,0.014,12.641-3.352,29.051-4.668c16.389-1.492,36.366-0.197,49.794,3.574  c11.747-1.692,19.479-2.156,19.475-2.246c-20.818-11.75-43.462-16.043-63.188-15.646c-19.879,0.317-37.155,5.104-50.818,11.371  c-5.736,2.582-10.948,5.562-15.55,8.65c5.528-7.877,9.85-16.344,12.715-25.143c5.997-17.869,6.321-36.193,1.438-52.617  c-1.326-3.882-3.114-7.432-5.243-10.657c0.869-1.274,1.61-2.614,2.254-3.978c0.128,0.105,0.201,0.166,0.201,0.166  c-0.063-0.063-0.124-0.132-0.188-0.195c0.865-1.838,1.557-3.717,2.135-5.539c-1.276,1.09-2.725,2.188-4.39,3.117  c-0.226-0.257-0.448-0.516-0.671-0.777c1.473-1.629,3.729-4.006,6.233-6.005c1.308-3.7,1.813-5.281,4.89-8.314  c-2.082,0.979-4.03,1.693-6.258,3.358c-2.137,1.556-4.438,4.623-6.888,8.443c-0.044-0.057-0.089-0.111-0.132-0.169  c0.514-1.53,1.694-4.838,3.925-7.979c3.021-4.342,8.636-5.867,13.601-7.218c1.635-1.261,3.287-2.454,4.798-3.55  c-2.813,0.448-6.227,0.971-9.97,1.971c-3.669,1.02-7.935,2.654-11.18,6.797c-0.079,0.086,2.253-4.404,7.355-6.802  c4.95-2.474,11.476-3.543,16.229-3.736c3.323-2.417,5.434-4.089,5.424-4.095c-8.245-1.609-15.584-1.833-22.614,0.662  c-3.464,1.248-7.002,3.498-9.524,6.709c-0.521,0.65-0.974,1.321-1.387,1.999c-1.239-3.011-3.18-5.718-5.378-7.899  c1.244,2.678,2.103,6.43,1.535,10.752c-1.781-4.166-3.141-8.674-3.888-13.471c-2.181-13.143,0.595-28.291,9.227-40.459  c8.015-12.539,23.689-19.748,38.609-16.635c7.314,1.396,14.307,5.238,19.241,10.521c4.815,5.351,7.09,12.793,6.178,19.779  c-0.883,6.869-4.703,13.677-10.234,16.951c-5.612,3.346-12.908,3.059-18.021-0.316c-5.395-3.057-7.367-9.59-5.44-14.672  c1.63-5.422,7.363-7.951,11.688-5.936c4.651,1.539,5.351,7.428,2.448,9.869c-2.837,2.697-7.373-0.309-6.164-2.969  c0.39-1.303,1.332-1.695,2.189-1.599c-1.058,0.339-1.83,1.32-1.83,2.491c0,1.451,1.178,2.629,2.629,2.629  c1.452,0,2.628-1.178,2.628-2.629c0-1.451-1.176-2.628-2.628-2.628c-0.029,0-0.059,0.009-0.089,0.009  c-0.718-0.348-1.622-0.345-2.312,0.142c-2.366,1.485-1.332,5.353,1.145,6.147c2.376,1.147,5.434-0.119,6.646-2.385  c1.274-2.199,1.405-5.115,0.045-7.36c-2.768-4.479-8.986-5.728-13.445-3.233c-4.533,2.588-6.63,7.643-6.655,12.502  c0.317,10.468,10.985,16.811,19.948,16.269c9.585-0.174,17.252-7.579,20.303-15.399c3.374-7.965,2.988-17.08-0.551-24.459  c-3.542-7.58-10.138-12.601-16.71-15.837c-13.581-6.653-29.077-4.763-39.889,2.009c-10.976,6.996-17.021,17.479-20.456,27.115  c-3.354,9.816-3.626,19.31-2.364,27.227c0.054,0.324,0.113,0.641,0.171,0.96c-0.58-0.333-1.149-0.641-1.695-0.915  c1.971,3.719,4.068,9.453,4.35,15.962c-0.25-1.235-3.601-10.875-6.439-16.894c-2.903-1.131-4.872-1.337-4.855-1.357  c2.048,12.255,3.38,18.375,6.581,22.956c0.155,0.233,0.316,0.461,0.479,0.687c-3.088-1.651-6.254-2.979-9.388-3.975  c-14.033-4.445-27.652-3.795-39.289,0.023c-11.825,4.26-19.577,14.588-20.373,24.516c-0.285,4.776,0.312,9.818,3.471,13.334  c3.026,3.357,7.041,4.678,10.486,4.869c3.405,0.133,6.716-0.463,8.962-2.448c2.268-1.839,2.906-4.702,2.404-6.704  c1.146,5.564-5.119,9.15-9.603,8.745c-4.763,0.163-9.819-1.921-12.624-6.13c-4.805-8.979-1.427-19.614,4.795-26.344  c6.252-7.076,15.776-10.141,24.348-10.891c8.742-0.998,17.56-0.162,25.704,2.361c5.338,1.602,10.374,4.031,14.889,7.103  c1.681,1.708,3.226,3.026,4.187,3.952c-0.25-0.474-0.495-0.941-0.737-1.402c0.364,0.293,0.726,0.589,1.08,0.891  c0.103,0.369,0.187,0.714,0.251,1.029c0.267,0.225,0.42,0.346,0.42,0.344c0.175-0.109,0.339-0.229,0.505-0.345  c0.455,0.411,0.899,0.829,1.339,1.253c0.14,0.584,0.293,1.139,0.457,1.666c-6.227-6.393-14.056-10.912-21.98-13.452  c-12.31-3.926-24.945-3.745-35.934-0.692c-11.084,3.293-19.363,12.455-20.73,22.227c-0.612,4.725-0.207,9.836,2.828,13.318  c2.961,3.42,7.273,4.756,11.037,4.729c3.707,0.081,7.649-1.371,9.058-4.549c0.712-1.514,0.786-3.178,0.194-4.631  c-0.705-1.293-2.102-1.846-3.326-1.815c-0.354-0.122-0.732-0.19-1.129-0.19c-1.933,0-3.5,1.566-3.5,3.5c0,1.934,1.567,3.5,3.5,3.5  c1.934,0,3.5-1.566,3.5-3.5c0-0.871-0.321-1.666-0.849-2.279c1.099,0.676,1.313,1.982,1.023,3.264  c-0.657,2.906-3.571,4.609-6.736,4.585c-6.514,0.404-13.085-4.21-12.37-11.243c-0.154-6.93,3.855-13.811,9.959-18.115  c6.025-4.404,14.2-5.732,22.627-5.885c16.522-0.322,34.234,6.906,43.604,20.938c4.83,6.83,6.64,15.199,7.469,23.936  c0.823,8.617,0.28,17.265-1.482,25.51c-6.146,29.301-25.911,50.915-43.792,63.47c-2.885,0.255-5.598,0.72-8.104,1.28  c-15.877,3.718-24.217,12.103-26.918,15.921c-4.697,1.469-7.404,1.978-7.322,2.11c2.451-0.398,4.876-0.873,7.274-1.414  c-0.326,0.266-0.63,0.524-0.903,0.772c-0.327,0.539-0.475,0.823-0.475,0.823c1.888-0.105,3.787-0.234,5.705-0.385  c-17.281,5.99-33.658,13.344-48.895,21.814c1.106-1.488,2.163-3.014,3.143-4.582c-2.313,2.651-5.079,5.12-8.27,7.476  c-4.517,2.604-8.923,5.304-13.228,8.081c-1.848,0.968-3.766,1.929-5.765,2.89c-0.017-0.042,5.095-3.694,11.847-8.524  c6.704-4.831,15.089-11.473,19.992-18.968c1.286-3.31,2.094-6.587,2.424-9.56c-3.554,8.836-12.714,17.851-24.005,25.41  c-0.252-0.145,19.722-15.217,24.228-30.133c-0.155-6.357-1.971-9.791-1.842-9.799c-3.047,11.4-9.361,17.665-15.012,23.473  c-5.776,5.725-11.337,10.926-15.755,16.156c-6.529,7.364-10.111,14.693-11.698,19.782c-20.151,14.751-37.815,31.179-53.331,47.903  c-1.416,1.541-2.813,3.084-4.193,4.628c0.709-1.57,1.372-3.202,1.982-4.875c5.934-6.676,11.614-14.367,16.564-23.124  c9.632-16.822,16.362-37.612,17.25-59.832c1.006-22.15-4.214-45.609-15.815-65.623c-5.719-10.04-13.154-19.048-21.315-26.831  c-8.143-7.868-17.326-14.608-27.269-19.481c-14.237-7.293-29.927-9.918-44.418-8.848c0.409-2.722,1.687-4.049,1.458-5.521  c-1.048,1.404-2.406,3.166-4.064,5.324c-0.064-0.049,1.658-3.508,3.787-6.822c-0.566-1.586-1.989-3.115-3.761-4.439  c0.751,2.357,0.108,5.356-1.659,10.756c-0.313-0.11,0.33-7.793-0.769-12.316c-0.932-0.519-1.851-0.949-2.75-1.306  c0.538,2.589,0.634,6.163,0.396,10.571c-0.126-0.047-1.779-6.508-1.855-11.094c-2.021-0.652-3.502-0.719-3.48-0.729  c-2.848,8.952-2.483,13.207,1.002,16.46c0.238,0.24,0.496,0.459,0.764,0.667c-1.833,0.391-3.633,0.84-5.391,1.352  c-3.664,1.021-7.164,2.23-10.513,3.578c-4.369-1.42-9.224-0.595-13.471,2.115c2.106-0.1,4.19,0.238,6.199,1.146  c-0.429,0.212-0.866,0.418-1.29,0.635c-2.086-0.027-5.139,0.174-8.587,1.206c-2.053,2.036-3.714,4.456-5.004,6.989  c-4.029,2.813-7.698,5.726-11.009,8.583c-18.268,16.229-27.099,30.214-29.486,33.747c11.316-14.394,24.17-26.997,38.237-36.52  c-0.061,0.219-0.132,0.44-0.187,0.658c0.177-0.301,0.368-0.608,0.57-0.918c2.283-1.533,4.597-2.986,6.941-4.353  c-3.4,3.177-6.62,7.446-8.559,11.153c-0.186,2.039-0.255,3.938-0.199,5.646c2.445-4.463,6.543-11.154,13.07-16.057  c-0.016-0.014-2.392,2.592-5.067,6.404c-2.714,3.785-5.521,8.836-7.868,12.375c0.277,3.664,0.82,5.953,0.8,5.953  c10.704-10.614,15.461-17.789,18.823-23.359c2.102-3.633,3.836-7.172,5.092-9.918c20.558-7.99,42.546-7.914,60.623-0.383  c19.467,7.869,34.664,22.076,45.843,36.818c2.735,3.663,5.18,7.428,7.359,11.256c-0.393-0.379-0.825-0.758-1.308-1.135  c-0.445-0.072-0.886-0.115-1.32-0.141c-2.449-5.365-5.83-10.592-10.252-15.273c-7.791-8.357-18.942-14.885-31.771-16.826  c-12.654-1.92-27.217,0.672-38.288,9.77c-11.104,8.805-18.128,23.149-18.154,38.07c-0.397,14.729,6.497,30.599,19.729,39.088  c12.813,8.666,31.21,9.668,44.31,0.141c13.092-9.361,18.023-27.437,12.746-42.102c-4.959-15.066-22.178-24.63-37.094-20.075  c-7.452,2.077-13.6,7.7-16.512,14.524c-2.989,6.828-3.031,14.611-0.311,21.295c2.723,6.719,8.686,11.838,15.448,13.537  c6.708,1.755,14.286,0.066,19.036-4.826c4.801-4.742,6.539-11.791,5.22-17.873c-1.165-6.219-5.925-11.413-11.669-12.994  c-5.67-1.721-12.188,0.202-15.451,4.776c-3.339,4.437-3.632,10.426-1.254,14.843c2.315,4.473,7.428,6.988,11.877,6.139  c4.642-0.535,7.783-4.649,8.188-8.496c0.471-3.906-1.432-7.73-4.493-9.243c-2.948-1.64-6.56-1.087-8.532,0.821  c-2.895,2.877-2.588,6.465-1.285,8.721c0.686,1.723,2.365,2.941,4.332,2.941c0.512,0,1.003-0.086,1.463-0.237  c0.14-0.022,0.28-0.049,0.422-0.083c0.016-0.041-0.113,0.006-0.361,0.061c1.828-0.632,3.143-2.363,3.143-4.406  c0-2.578-2.088-4.666-4.666-4.666c-2.576,0-4.666,2.088-4.666,4.666c0,0.1,0.01,0.197,0.016,0.296  c-0.481-1.462-0.465-3.079,0.227-4.46c1.57-4.241,7.343-5.037,10.42-2.279c3.268,2.575,3.704,7.582,1.668,10.955  c-2.044,3.469-6.551,4.84-10.201,3.494c-7.924-2.43-9.15-13.744-3.466-18.733c5.445-5.398,15.251-3.247,18.997,2.938  c4.05,6.014,2.96,14.804-1.896,19.764c-4.764,5.2-12.948,5.947-19.024,2.959c-13.15-5.972-14.165-25.134-4.813-34.082  c9.082-9.732,25.545-7.657,33.809,1.271c8.822,8.769,10.08,22.955,5.418,33.482c-4.58,10.839-15.156,17.797-26.105,18.203  c-10.938,0.854-21.445-3.932-28.424-11.258c-14.346-15.028-13.71-38.099-4.902-52.492c8.738-15.238,25.01-21.771,38.634-21.542  c13.857-0.024,25.269,5.528,32.992,11.732c7.323,5.88,11.759,12.313,14.521,17.438c-5.499,0.096-10.02,3.695-11.743,6.727  c1.821-1.436,4.601-2.93,8.196-2.941c2.404-0.072,4.852,0.914,6.541,2.563c0.191,0.521,0.373,1.035,0.542,1.543  c-0.941-0.784-2.462-1.673-4.792-1.945c-4.658-0.617-9.974,2.543-12.637,5.301c-0.51,1.58-0.773,3.068-0.92,4.406  c2.574-2.512,7.82-7.322,13.73-6.373c-0.346-0.01-2.531,0.209-5.238,1.778c-2.926,1.69-6.109,4.664-8.627,6.731  c-0.069,2.877,0.326,4.693,0.297,4.689c5.443-2.549,9.388-4.623,12.012-5.731c2.787-1.184,3.186-0.971,3.367-1.533  c0.843-1.537,6.903-1.224,8.909-1.237c-1.845-0.737-3.357-1.264-4.64-1.611c-0.101-0.494-0.204-0.988-0.318-1.482  c1.947,0.688,3.684,1.78,4.897,2.554c3.331,7.944,5.647,15.987,7.113,23.819c5.849,31.794-1.298,59.273-9.874,78.486  c-6.89,15.422-14.664,26.248-20.514,33.531c-1.936,1.967-4.121,4.021-6.586,6.218c-0.324-0.407,10.703-13.528,16.406-23.462  c0.359-2.299,0.592-4.491,0.652-6.49c-2.759,5.503-7.82,12.295-13.893,19.719c-0.148-0.19,8.918-14.291,13.924-22.898  c-0.096-4.302-0.823-6.923-0.764-6.911c-5.219,6.605-9.674,11.41-13.121,16.423c-3.445,4.927-5.897,9.905-7.266,14.645  c-2.88,9.586-0.849,17.232,0.551,19.934c-0.203-1.793-0.262-3.544-0.208-5.254c0.362-0.291,0.726-0.591,1.089-0.889  c-0.387,2.589-0.512,4.776-0.473,6.362c-15.031,18.4-27.939,36.875-39.315,54.693c-31.684,49.262-50.306,94.504-75.222,122.438  c-12.043,14.177-25.092,23.884-37.229,29.308c-12.146,5.498-23.003,6.965-30.917,7.299c19.356-0.201,37.834-7.805,52.417-19.674  c14.741-11.813,26.263-26.918,36.396-42.402c19.938-31.274,35.877-64.311,55.23-93.584c30.508-48.36,66.066-89.43,103.393-118.779  c0.403,0.137,0.818,0.26,1.232,0.382c-43.803,34.319-76.697,77.203-102.857,117.8c-29.437,44.84-48.443,89.774-74.973,119.787  c-13,15.037-27.757,25.93-42.319,31.403c-14.571,5.604-28.185,5.912-38.673,5.021C2.221,565.241,0,565.038,0,565.044  c12.635,2.791,27.334,3.605,42.249-0.572c14.917-4.041,29.351-12.959,41.735-24.719C108.977,516.026,126.491,482.997,145.436,450.8z   M517.331,220.014c-0.439-0.354-0.862-0.741-1.271-1.146c0.133-0.023,0.264-0.047,0.395-0.07c0.604,0.213,1.567,0.544,2.82,0.943  C518.616,219.829,517.967,219.921,517.331,220.014z M539.698,218.353c10.424,1.686,19.661,5.566,26.623,10.398  c14.778,10.285,18.075,22.43,18.666,24.479c-3.755-10.47-11.945-19.177-21.182-24.592c-8.771-5.241-18.302-7.961-27.086-9.054  C537.723,219.196,538.715,218.786,539.698,218.353z M538.207,223.987c-2.86-0.277-5.716-0.539-8.564-0.785  c-2.821-0.756-5.778-1.435-8.899-1.996c-0.015,0.011,1.741-0.008,4.644,0.281c0.954,0.242,1.948,0.482,2.984,0.71  c0.282-0.066,0.566-0.146,0.852-0.218C531.835,222.389,534.902,223.018,538.207,223.987z M541.818,205.86  c9.4-2.492,15.758-4.076,15.795-4.041c-11.17,4.034-22.179,7.254-31.457,10.473c-5.077,1.726-9.548,3.482-13.13,5.027  c-1.005,0.277-1.961,0.538-2.865,0.756c-0.396,0.115-0.785,0.227-1.167,0.334C520.871,211.335,533.021,208.329,541.818,205.86z   M456.427,222.827c-14.194,0.725-28.372,2.145-42.392,4.364c-0.115-0.082-0.23-0.167-0.351-0.247  C435.705,223.698,450.52,223.045,456.427,222.827z M414.274,231.136c1.584,1.211,2.872,2.468,3.81,3.684  c2.51,3.103,3.174,5.387,3.322,5.791c-1.729-3.914-4.684-6.977-8.167-9.282C413.585,231.263,413.929,231.2,414.274,231.136z   M408.627,227.735c0.182,0.086,0.357,0.174,0.535,0.261c-0.591,0.103-1.182,0.206-1.772,0.311c-0.212-0.083-0.423-0.173-0.636-0.253  C407.383,227.946,408.009,227.839,408.627,227.735z M412.601,63.644c0.108,0.846,0.237,1.674,0.378,2.491  c-0.147-0.094-0.296-0.183-0.442-0.272c-0.877-5.107-1.06-10.307-0.499-15.395c1.718-15.601,9.639-30.342,22.187-38.723  c12.628-8.221,28.949-8.334,40.799-1.827c12.342,5.737,19.534,19.392,17.416,31.081c-1.559,11.575-10.397,21.146-20.199,21.639  c-9.496,0.843-17.588-5.002-19.313-11.557c-1.86-6.663,1.294-11.842,3.836-14.051c2.297-1.906,4.136-2.16,4.64-2.229  c-6.98,1.386-10.341,9.842-8.328,16.217c2.019,6.78,9.019,10.84,15.666,11.354c6.819,0.631,13.759-2.689,17.676-8.164  c4.076-5.287,6.197-12.014,5.815-18.584c-0.34-6.566-3.006-12.902-7.342-17.643c-4.458-4.609-9.893-7.973-15.715-10.004  c-11.71-3.998-24.581-2.117-34.126,3.91C415.969,24.903,410.389,47.472,412.601,63.644z M415.479,89.058  c-2.664-5.146-4.787-9.496-6.27-13.516c-1.988-5.135-3.162-9.045-3.146-9.069c4.802,9.456,9.154,18.237,11.367,23.981  C416.789,89.972,416.137,89.508,415.479,89.058z M417.809,86.673c0.092-0.495,0.156-1.937,0.086-3.896  c0.267,0.484,0.534,0.953,0.806,1.412C418.458,85.004,418.162,85.833,417.809,86.673z M418.813,83.784  c-0.33-0.594-0.646-1.193-0.951-1.798c-0.014-0.241-0.027-0.486-0.044-0.738c0.355,0.735,0.725,1.45,1.102,2.146  C418.884,83.524,418.847,83.653,418.813,83.784z M420.314,88.405c-0.354,0.229-0.722,0.449-1.113,0.656  c0,0.006,0.467-0.52,1.141-1.471C420.329,87.866,420.321,88.138,420.314,88.405z M423.418,90.432  c0.439,0.587,0.88,1.151,1.319,1.692c-0.004,0.096-0.007,0.188-0.012,0.283c-0.484-0.576-0.954-1.166-1.413-1.763  C423.349,90.573,423.384,90.503,423.418,90.432z M423.222,90.829c0.015-0.027,0.024-0.053,0.039-0.078  c0.501,0.618,0.99,1.193,1.463,1.73c-0.071,1.648-0.055,3.186,0.021,4.607c-0.459-0.504-0.928-0.996-1.402-1.479  C423.196,94.022,423.15,92.431,423.222,90.829z M424.072,100.552c-0.112-0.563-0.217-1.122-0.311-1.684  c0.428,0.482,0.844,0.971,1.249,1.468c0.064,0.576,0.133,1.128,0.205,1.649C424.844,101.499,424.462,101.021,424.072,100.552z   M424.834,90.716c-0.316-0.467-0.634-0.937-0.939-1.418c0.617-1.709,0.869-3.545,0.771-5.354c-0.182,0.303-0.379,0.598-0.585,0.887  c1.584-5.74,6.385-10.404,10.376-11.97c7.818-3.329,13.294-3.024,14.543-3.043c-5.132,0.72-10.237,1.96-14.852,4.632  c-4.81,2.621-8.16,7.945-8.861,12.54C425.074,88.284,424.933,89.522,424.834,90.716z M426.328,94.013  c0.001-0.004,0.004-0.009,0.005-0.012c0.001,0,0.001,0.002,0.002,0.002C426.332,94.005,426.33,94.009,426.328,94.013z   M369.467,237.287c-0.308-0.089-0.611-0.185-0.916-0.278c1.521-0.457,3.027-0.895,4.521-1.317c0.355,0.075,0.717,0.15,1.08,0.229  C372.588,236.366,371.023,236.817,369.467,237.287z M386.302,232.718c-0.413-0.059-0.841-0.115-1.263-0.172  c2.111-0.514,4.186-0.992,6.225-1.443c0.387,0.061,0.771,0.124,1.156,0.189C390.376,231.749,388.336,232.225,386.302,232.718z   M394.423,228.306c-3.289-0.716-6.798-1.203-10.44-1.404c0.851-0.003,6.132-0.279,12.844,0.922  C396.023,227.981,395.223,228.142,394.423,228.306z M399.784,229.733c-0.267-0.084-0.532-0.168-0.802-0.248  c0.981-0.193,1.952-0.38,2.914-0.561c0.275,0.076,0.553,0.157,0.828,0.242C401.744,229.354,400.763,229.538,399.784,229.733z   M428.438,96.246c0.213,0.212,0.422,0.419,0.629,0.62c-0.645,0.342-1.318,0.658-2.032,0.937  C427.165,97.698,427.667,97.108,428.438,96.246z M434.188,152.048c2.118-14.522,1.662-29.404-4.258-42.45  c-0.703-1.446-1.482-2.835-2.324-4.171c0.203-0.229,0.4-0.463,0.593-0.698c2.233,3.485,3.968,7.23,5.084,11.15  c3.97,14.906,3.414,29.485,0.398,42.176c-3.693,15.135-10.402,27.185-17.49,36.51c-0.438,0.326-0.858,0.652-1.28,0.978  C424.816,182.673,431.74,167.747,434.188,152.048z M406.819,207.46c2.269-1.748,4.561-3.46,6.906-5.098  c7.693-5.463,16.09-9.594,24.084-13.002c16.249-6.687,32.209-9.825,45.757-10.813c25.103-1.827,41.412,3.13,43.814,3.738  c-31.273-5.744-63.778,0.071-88.092,10.005c-12.262,4.842-22.8,11.04-30.693,16.646c-6.708,4.615-12.138,8.549-16.269,11.301  c-0.405-0.023-0.812-0.045-1.212-0.059C396.77,216.343,402.029,212.079,406.819,207.46z M394.885,215.663  c-0.105,0.131-0.213,0.26-0.316,0.387c-2.184,1.664-4.108,3.02-5.726,4.099c-0.046,0.001-0.09,0.001-0.136,0.001  C390.813,218.724,392.877,217.229,394.885,215.663z M385.297,223.893c6.233-0.339,12.117,0.259,17.125,1.572  c0.93,0.251,1.829,0.53,2.698,0.833c-0.883,0.15-1.767,0.303-2.646,0.461c-0.664-0.158-1.324-0.305-1.978-0.424  c-6.46-1.242-12.77-1.192-18.564-0.5C383.064,225.204,384.188,224.557,385.297,223.893z M382.959,230.312  c0.643,0.02,1.298,0.054,1.958,0.096c-1.946,0.46-3.887,0.938-5.817,1.433c-2.531-0.258-5.209-0.478-8.024-0.653  c0.593-0.256,1.182-0.518,1.768-0.782C375.591,230.238,379.094,230.14,382.959,230.312z M350.96,237.081  c-0.444,0.146-0.88,0.285-1.294,0.416c8.47-7.05,18.396-11.041,28.018-12.727c-0.32,0.19-0.645,0.387-0.963,0.57  c-1.251,0.734-2.484,1.432-3.693,2.094C363.063,229.842,355.443,233.841,350.96,237.081z M368.376,234.786  c-1.078,0.316-2.153,0.639-3.228,0.965c-0.873-0.379-1.722-0.798-2.531-1.27c0.412-0.143,0.824-0.285,1.234-0.433  C365.031,234.224,366.578,234.468,368.376,234.786z M300.688,266.441c22.085-12.895,43.546-21.774,63.009-27.942  c0.996-0.113,2.004-0.232,3.021-0.358c-0.843,0.263-1.692,0.517-2.532,0.787c-23.078,7.431-45.106,17.47-65.441,29.658  C299.399,267.886,300.049,267.169,300.688,266.441z M89.776,149.243c-1.317,0.906-1.978,1.416-1.993,1.365  c0.664-0.477,1.334-0.942,2.007-1.404C89.785,149.216,89.781,149.229,89.776,149.243z M92.211,147.626  c0.036-0.037,0.068-0.074,0.104-0.111c4.021-2.617,8.2-4.992,12.504-7.082c0.32-0.07,0.645-0.138,0.975-0.195  C99.701,143.074,95.193,145.718,92.211,147.626z M98.275,156.214c-3.839,5.925-6.865,10.074-6.912,10.034  c4.342-7.872,8.106-15.28,12.33-20.728c1.251-1.656,2.521-3.156,3.75-4.496c0.235-0.105,0.469-0.215,0.703-0.317  c0.686-0.309,1.373-0.608,2.063-0.897C105.116,145.98,101.482,151.364,98.275,156.214z M112.2,137.447  c-0.095,0.037-0.192,0.073-0.286,0.11c-0.639,0.262-1.26,0.523-1.871,0.785c0.17-0.167,0.34-0.333,0.508-0.492  c0.661-0.274,1.326-0.541,1.992-0.802C112.428,137.183,112.314,137.315,112.2,137.447z M222.777,185.259  c-6.459-12.475-17.602-22.292-30.557-26.838c-13.24-4.75-28.393-3.83-40.281,2.871c-12.026,6.617-19.901,19.117-22.049,32.084  c-2.244,13.022,1.205,26.779,9.542,36.288c8.309,9.555,21.116,14.456,33.039,12.774c12.017-1.389,21.956-10.133,25.636-20.844  c3.68-10.643,1.957-22.933-4.89-30.979c-6.681-8.214-17.839-11.646-27.187-9.024c-9.445,2.441-15.779,11.292-16.471,20.022  c-0.973,8.82,3.289,17.38,10.197,21.166c6.741,3.947,15.314,3.174,20.352-1.271c5.193-4.398,6.756-11.305,5.559-16.727  c-1.102-5.539-5.08-9.492-9.119-10.997c-4.081-1.562-8.076-0.981-10.704,0.36c-5.356,3.023-5.78,6.996-5.916,6.755  c1.884-5.798,8.325-9.167,14.156-7.917c5.866,1.02,10.617,5.984,11.733,11.738c1.25,5.736-0.475,12.074-4.671,16.141  c-4.097,4.183-10.45,5.609-16.065,4.302c-5.652-1.247-10.631-5.087-13.321-10.165c-2.702-5.053-3.366-11.165-2.044-16.703  c2.381-11.43,13.869-19.387,25.186-17.941c11.283,0.912,21.008,9.459,24.129,19.93c3.271,10.485,1.135,22.319-5.426,30.686  c-6.399,8.636-17.163,12.814-27.367,12.311c-10.266-0.365-19.911-5.238-26.506-12.461c-13.527-14.711-13.702-37-5.398-52.101  c8.24-15.731,24.889-23.854,39.666-23.673c14.939-0.234,27.822,6.063,36.363,13.84c5.76,5.185,9.811,10.921,12.615,16.379  C222.911,185.263,222.842,185.258,222.777,185.259z M128.881,120.509c-0.746-3.432-0.281-6.184-0.296-6.213  c0.556,4.329,2.071,7.998,4.326,10.839c0.661,0.894,1.433,1.675,2.233,2.317c-0.632,0.087-1.26,0.182-1.885,0.283  c-0.673-0.559-1.237-1.152-1.695-1.684C130.016,124.169,129.28,122.229,128.881,120.509z M227.732,197.613  c-4.529-1.221-6.176-0.191-9.482,1.663c-3.851,2.449-7.117,4.902-7.119,4.807c4.679-4.564,8.938-8.645,12.638-8.589  c1.2-0.038,2.395,0.205,3.522,0.589C227.508,196.792,227.647,197.304,227.732,197.613z M226.787,193.585  c-0.117-0.418-0.236-0.836-0.365-1.256c0.516,0.646,0.928,1.363,1.19,2.143C227.594,194.554,227.352,194.144,226.787,193.585z   M230.039,194.876c-0.101,0.071-0.007-0.537-0.119-1.56c0.125,0.258,0.244,0.515,0.365,0.772  C230.211,194.353,230.13,194.614,230.039,194.876z M182.35,140.68c-13.449-7.095-27.406-9.808-39.613-9.558  c-11.526,0.309-21.438,2.887-29.344,5.865c0.049-0.111,0.094-0.216,0.141-0.322c7.949-3.014,16.217-5.012,24.604-5.717  c18.011-1.607,35.937,3.379,50.647,12.609c14.725,9.217,26.992,21.685,36.112,35.282c1.871,2.829,3.587,5.722,5.167,8.66  c-0.094-0.069-0.18-0.142-0.277-0.209c0.588,1.051,0.875,2.181,0.933,3.341C219.152,167.83,200.821,150.487,182.35,140.68z   M217.459,324.052c21.252-30.347,29.965-67.67,24.016-100.494c-1.464-9.115-4.025-17.711-7.414-25.725  c0.115-0.531,0.193-1.066,0.231-1.599c3.747,8.655,6.354,17.567,7.897,26.37c5.283,29.954-1.209,57.773-10.783,78.191  c-4.394,9.443-9.336,17.484-14.221,24.247C217.278,324.713,217.371,324.384,217.459,324.052z M198.773,346.368  c0.38-11.174,5.732-20.498,9.357-26.697c4.488-7.296,7.842-11.916,7.869-11.947c-4.88,9.1-9.992,17.814-13.014,26.064  c-1.591,4.145-2.536,8.037-3.059,11.319C199.392,345.692,199.012,346.106,198.773,346.368z M206.32,343.625  c-1.279,0.413-2.645,0.729-4.082,0.915c-0.004-0.025,3.17-2.022,7.279-4.627C208.439,341.149,207.378,342.388,206.32,343.625z   M217.041,324.636c-1.439,2.415-3.293,4.842-5.6,7.394C213.393,329.617,215.262,327.151,217.041,324.636z M287.9,283.255  c6.609-2.309,13.054-4.622,19.42-6.541c12.774-3.975,25.134-6.553,35.894-6.803c19.829-0.762,31.468,6.891,33.417,8.135  c-10.867-6.163-23.961-7.735-35.763-6.751c-12.017,0.956-23.054,3.976-32.836,6.911c-8.825,2.814-16.775,5.396-23.585,7.488  C285.595,284.873,286.745,284.058,287.9,283.255z M281.508,278.513c0.999-0.334,2.17-0.729,3.476-1.176  c-1.267,0.854-2.521,1.721-3.772,2.593c-0.578,0.016-1.154,0.005-1.729-0.026C280.157,279.438,280.832,278.97,281.508,278.513z   M284.781,265.782c5.609-5.949,10.927-10.871,15.061-15.303c8.443-8.648,11.682-16.154,11.723-16.164  c-5.479,13.895-17.1,23.316-25.516,32.504c-4.59,4.661-8.338,9.262-11.123,13.276c-0.732,0.519-1.463,1.038-2.188,1.562  C276.094,275.491,280.613,270.275,284.781,265.782z M265.251,290.655c-0.39,0.17-0.685,0.303-0.886,0.396  c1.887-1.481,3.777-2.926,5.673-4.346c-0.063,0.435-0.105,0.832-0.122,1.183c0.188-0.519,0.386-1.028,0.592-1.534  c0.326-0.244,0.652-0.493,0.979-0.735c-0.399,0.741-0.747,1.438-1.041,2.087c-0.759,0.572-1.508,1.154-2.261,1.731  c-0.385,0.158-0.748,0.304-1.088,0.433c0.273-0.072,0.544-0.15,0.817-0.225c-0.314,0.242-0.63,0.482-0.944,0.725  C266.367,290.481,265.791,290.578,265.251,290.655z M168.698,413.208c3.169-2.658,5.862-5.688,8.539-8.557  c4.409-4.906,8.476-9.654,12.222-13.537c7.413-7.896,13.559-11.942,13.565-11.875c-10.071,8.434-17.517,18.934-24.53,26.459  c-3.943,4.506-7.945,7.83-11.423,10.016C167.611,414.878,168.154,414.044,168.698,413.208z"></path><path d="M401.025,469.19c3.58-19.816,0.683-33.027,0.128-36.4c1.027,21.148-2.896,42.234-15.015,56.377  c-12.121,14.428-29.977,20.445-46.572,23.168c-10.4,1.57-20.486,2.133-30.25,2.102c-0.03-0.016-0.063-0.028-0.094-0.047  c-0.004,0.013,4.366,0.312,9.864-1.313c3.604-3.119,6.447-7.232,8.354-11.363c-3.08,3.973-8.354,8.367-15.905,10.207  c1.983-0.855,13.237-7.646,17.899-15.504c0.582-1.861,0.93-3.672,1.179-5.289c-2.546,4.25-7.093,9.805-13.341,14.193  c1.623-1.441,9.838-10.283,13.639-16.791c0.251-3.521-0.129-5.691-0.086-5.683c-8.792,10.193-15.064,16.041-19.274,21.748  c-3.062,3.969-5.366,7.396-6.914,9.781c-20.363-0.449-39.279-3.264-56.629-4.648c-53.904-5.004-90.835,2.83-103.717,11.279  c8.009-4.645,17.083-6.113,25.751-7.775c8.757-1.557,17.544-2.438,26.223-2.854c17.374-0.832,34.283,0.182,50.373,1.627  c20.272,2.178,39.294,4.373,56.753,4.912c-0.201,0.131-0.397,0.254-0.58,0.361c-0.173,0.299-0.258,0.467-0.258,0.467  c0.277,0.1,0.562,0.184,0.848,0.26c-19.671-0.441-38.533-3.121-56.206-4.779c-24.606-2.375-47.002-2.84-65.47-0.885  c-18.304,2.096-33.386,4.998-41.236,11.662c-1.461,1.516-1.666,2.641-1.702,2.604c9.003-8.205,24.05-7.735,38.829-9.157  c15.115-0.886,31.59-0.304,48.722,1.094c17.198,1.332,34.805,3.709,52.999,5.426c18.146,1.551,36.6,1.795,54.153-0.877  c1.155-0.172,2.308-0.361,3.457-0.564c0.905,0.636,1.725,1.222,2.478,1.785c-0.193-0.637-0.421-1.354-0.658-2.125  c0.352-0.067,0.703-0.127,1.054-0.196c0.548,1.049,1.059,2.301,1.304,3.633c1.842,1.416,3.925,3.071,5.919,5.151  c-1.196-2.358-1.835-5.485-4.543-9.352c0.32-0.07,0.642-0.139,0.961-0.211c0.608,0.606,1.236,1.319,1.813,2.145  c2.221,2.927,3.502,7.097,4.195,10.216c0.816,1.043,1.631,2.09,2.256,3.102c-0.127-3.592-0.717-9.135-4.472-14.924  c0.017-0.047,2.206,2.205,3.747,5.625c1.61,3.395,2.296,7.893,1.771,10.953c1.394,2.309,2.08,4.026,2.137,4.014  c4.746-8.541,1.995-18.133-3.337-23.297c10.694-3.271,20.552-8.055,28.485-14.664C392.502,494.284,398.75,480.544,401.025,469.19z   M305.52,514.396c13.267-12.872,22.291-25.69,22.669-25.907c-6.863,11.563-15.646,21.037-21.479,25.924  C306.313,514.407,305.916,514.403,305.52,514.396z M334.354,516.458c-2.481,0.336-4.963,0.611-7.433,0.832  c-5.813,0.522-11.571,0.752-17.269,0.771c1.087-0.229,2.171-0.577,3.232-1.026c6.805-0.051,13.344-0.422,19.6-1.224  c1.471-0.147,2.918-0.325,4.346-0.521C335.855,515.616,335.027,516.032,334.354,516.458z M353.646,526.825  c2.357,5.643,1.576,9.676,1.515,10.248c0.1-6.592-3.302-13.224-8.183-16.728c0.498-0.131,0.992-0.268,1.487-0.401  C350.98,521.991,352.655,524.536,353.646,526.825z M343.518,514.913c-0.922-0.182-1.795-0.262-2.619-0.266  c20.451-3.593,36.078-12.132,44.271-21.462c9.437-10.456,11.466-18.717,11.651-18.52c-5.117,13.961-15.766,25.295-28.67,31.814  C360.346,510.528,351.994,513.171,343.518,514.913z"></path><path d="M401.153,432.79c-0.016-0.287-0.025-0.574-0.042-0.859C401.029,431.925,401.06,432.222,401.153,432.79z"></path><path d="M50.898,187.798c-0.227,0.289-0.455,0.574-0.68,0.863C50.265,188.71,50.49,188.402,50.898,187.798z"></path><path d="M38.183,402.478c10.167,6.619,21.034-4.237,16.911-10.006c-0.277-0.633-0.662-1.108-1.098-1.467  c-0.838-0.801-1.971-1.297-3.223-1.297c-2.576,0-4.666,2.09-4.666,4.666c0,2.578,2.09,4.666,4.666,4.666  c1.279,0,2.436-0.514,3.279-1.346c-2.25,3.463-6.852,5.354-10.584,4.276c-7.522-2.557-11.143-12.246-10.163-19.531  c0.681-7.836,6.072-13.804,12.107-18.434c6.002-4.58,12.929-7.428,19.876-8.293c6.938-1.027,13.795,0.17,19.787,2.563  c6.006,2.521,10.805,6.642,15.354,11.324c8.957,9.202,14.982,19.828,18.781,30.214c7.592,20.979,6.359,40.514,3.081,54.76  c-3.35,14.426-8.694,24.078-11.874,29.563c16.977-25.942,19.848-58.369,10.799-84.008c-4.381-12.896-11.617-24.088-20.254-32.76  c-8.347-9.039-19.121-13.808-29.57-13.857c-10.366-0.143-19.693,3.554-26.336,8.683c-6.822,5.039-11.443,11.104-12.674,16.963  c-2.434,12.076,3.586,18.155,3.131,17.979c-3.647-5.209-4.77-11.938-3.369-18.014c1.275-6.217,5.52-11.146,10.173-15.275  c9.302-8.342,22.058-12.317,33.903-10.639c12.111,1.34,21.797,9.035,29.201,17.713c7.537,8.619,12.971,18.459,16.438,28.387  c7.045,19.976,6.051,39.8,2.121,55.029c-3.963,15.398-10.719,26.49-15.691,33.269c-0.94,1.465-1.415,2.221-1.415,2.221  c14.897-14.277,28.465-42.75,24.247-74.33c-1.873-15.568-8.125-31.319-18.213-44.198c-5.216-6.381-10.601-12.21-17.91-16.788  c-7.168-4.483-15.543-6.623-23.617-6.508c-16.375,0.176-30.48,9.29-38.199,20.66C24.953,380.952,29.303,396.538,38.183,402.478z"></path><path d="M239.804,478.796c6.376-4.137,10.366-7.086,10.36-7.1c-29.898-9.582-53.664-5.345-69.593,2.641  c-16.13,7.99-24.063,19.904-26.37,25.209c17.283-17.598,39.49-23.717,55.236-26.147c16.052-2.341,26.873-0.736,26.863-0.767  c-19.293,0.523-37.859,5.229-52.582,11.166c-14.78,5.881-25.498,13.277-30.267,17.48c-0.302,0.756-0.429,1.17-0.429,1.17  c9.881,3.297,18.928,3.949,28.3,2.508c-4.478-1.932-8.916-4.648-13.071-8.773c0.022-0.004,9.724,3.572,21.084,7.105  c8.795-2.305,17.622-6.055,25.822-10.18c-10.246,1.77-23.458,1.709-41.398-1.224c0.098-0.395,32.085-2.227,51.573-4.24  c3.507-2.016,6.796-3.975,9.751-5.831c-10.576,0.532-25.873,1.129-43.602,1.752C191.443,483.337,222.213,477.335,239.804,478.796z"></path><path d="M72.871,502.089c-10.842,14.701-18.264,25.389-22.258,34.224c-4.363,8.676-5.85,13.627-9,14.405  c2.979-0.021,4.865-2.416,6.742-4.748c1.816-2.43,3.422-5.067,4.948-7.647c3.026-5.185,5.774-10.115,8.218-14.289  c4.854-8.363,8.41-13.859,8.424-13.859c-5.332,10.514-10.397,20.828-15.211,28.941c-4.605,8.125-10.302,13.727-14.078,11.789  c-0.445,0.065-0.713,0.098-0.711,0.098c0.41,2.943,5.131,5.139,8.961,4.084c3.896-0.758,7.111-2.857,9.738-5.232  c-3.012,0.979-6.233,1.162-9.021-0.065c0.452,0.063,6.529-0.584,13.107-4.43c3.994-5.287,6.564-11.404,8.215-17.257  c-3.305,5.859-8.996,13.525-18.975,18.074c0.014,0.051,4.098-2.832,8.515-7.865c4.457-4.959,9.227-11.805,12.114-17.6  c0.434-2.588,0.712-5.027,0.848-7.25c-3.004,6.025-7.963,14.381-15.163,22.176c1.573-2.092,10.548-16.563,15.29-25.729  C73.656,505.087,72.869,502.058,72.871,502.089z"></path><path d="M28.642,531.317c1.505-6.185,3.444-10.275,3.461-10.271c-3.934,15.121-4.089,29.662-5.39,34.736  c0.139,0.338,0.225,0.521,0.225,0.52c4.771-0.936,8.171-4.344,10.07-8.315c-1.99,1.227-4.439,2.065-7.264,2.192  c-0.008,0.015,4.311-1.989,8.591-5.766c1.113-4.055,1.112-8.387,0.542-12.348c-0.907,4.323-3.389,9.975-9.272,15.159  c0.757-0.952,6.912-12.071,8.267-20.067c-0.438-1.688-0.955-3.25-1.473-4.65c-1.08,4.293-2.992,10.504-6.34,16.904  c0.304-0.801,3.092-12.373,5.46-19.129c-1.267-2.986-2.351-4.797-2.345-4.799c-15.255,21.707-8.207,34.049-6.764,39.53  C26.229,545.558,27.021,537.591,28.642,531.317z"></path><path d="M584.661,463.151c-10.04-5.277-21.451-5.283-29.782-1.763c-2.794,1.136-5.19,2.59-7.237,4.203  c1.686-9.678,2.064-19.449,1.239-28.903c-1.845-21.599-9.547-41.688-20.76-57.974c-5.576-8.205-11.872-15.486-18.913-21.815  c-7.161-6.347-15.459-10.996-24.071-13.521c-17.258-5.099-35.273-1.979-47.76,6.756c-6.101,4.255-11.784,9.554-14.091,16.374  c-2.381,6.628-2.003,13.519-0.045,19.239c2.033,5.742,5.37,10.443,9.472,13.709c4.175,3.355,9.516,3.992,13.621,2.707  c4.002-1.254,7.5-4.203,7.651-7.797c0.183-3.433-1.724-6.092-3.857-7.063c-0.269-0.088-0.535-0.146-0.794-0.182  c-0.775-0.572-1.73-0.917-2.771-0.917c-2.576,0-4.665,2.089-4.665,4.667c0,2.576,2.089,4.666,4.665,4.666  c2.578,0,4.666-2.09,4.666-4.666c0-1.318-0.547-2.504-1.425-3.354c1.234,0.466,2.158,1.599,2.748,2.726  c1.693,3.039,0.705,7.111-2.271,8.813c-5.473,4.162-13.504,2.642-17.849-2.104c-9.318-9.422-10.995-25.354-2.908-35.122  c8.326-9.493,20.716-15.212,33.017-15.901c12.341-0.805,24.689,2.662,34.617,9.377c19.377,14.211,32.598,36.271,39.023,58.173  c6.467,22.227,5.568,45.688-1.867,65.957c-7.1,20.397-21.563,35.881-37.725,48.698c0.611-6.071-0.41-12.643-3.15-18.342  c1.84,7.299,0.464,16.818-5.735,25.072c-0.025,0.018-0.051,0.037-0.077,0.055c0.348-0.748,2.193-4.744,3.345-10.471  c1.331-6.261,1.33-15.041-2.231-21.668c-2.021-2.179-4.342-3.822-6.562-4.855c5.665,5.447,7.896,15.976,5.452,25.754  c-0.054,0.004,0.519-4.498-0.323-10.323c-0.633-5.806-3.924-12.943-8.742-16.705c-4.982-1.158-7.815,0.01-7.799-0.138  c7.796,5.316,8.623,11.479,9.479,16.472c0.666,5.213,0.878,10.1,1.194,14.504c0.278,4.17,0.619,7.912,0.937,11.047  c-12.361,8.213-25.376,14.824-38.57,19.934c-36.396,14.052-73.78,16.771-106.952,12.279c-16.109-1.893-30.946-6.248-44.963-11.482  c-1.322-0.704-2.607-1.616-3.81-2.776c0.038-0.049,0.076-0.099,0.113-0.146c1.314,0.48,5.385,1.863,10.104,2.927  c4.223-1.474,8.074-3.617,11.592-5.677c-4.451,0.812-10.813,1.537-19.54,0.435c0.912-0.031,15.781-2.615,23.91-2.988  c1.521-0.879,2.97-1.664,4.332-2.315c-4.45-0.771-11.76-0.298-20.203,0.702c-0.251,0.044,14.897-4.858,22.434-1.696  c3.085-1.258,5.473-1.582,5.473-1.636c-5.449-5.575-13.646-6.323-19.398-5.745c-5.964,0.676-10.616,2.678-14.153,4.858  c-3.544,2.201-6.058,4.646-7.919,6.779l-0.21,0.246c-0.127-0.011-0.252-0.023-0.39-0.027c-0.476,0.072-0.743-0.143-1.948,0.625  c-0.051-0.115-1.186,1.148-1.448,2.088c-10.993-4.516-21.53-9.326-31.845-13.606c-13.246-5.447-26.123-10.543-39.15-13.056  c-12.922-2.461-25.3-2.92-36.695-2.114c-19.319,1.344-35.821,5.475-49.692,9.889c-5.037,0.053-9.567,0.848-13.377,2.406  c-2.517,1.063-4.791,2.582-6.142,4.559c-9.527,3.779-17.292,7.432-23.363,10.545c7.537-3.639,15.21-6.965,22.992-9.957  c-0.111,0.197-0.212,0.396-0.295,0.59c-13.25,5.002-24.365,10.322-33.355,15.13c-4.466,2.608-6.703,3.991-6.708,3.983  c11.968-5.85,25.237-11.541,39.595-16.404c0.031,0.535,0.127,0.998,0.23,1.347c-0.076-0.478-0.064-0.957,0.01-1.431  c0.206-0.067,0.415-0.135,0.621-0.204c-0.316,1.114-0.252,2.186-0.006,2.938c0.311,0.508,0.482,0.725,0.482,0.729  c1.596-3.718,3.85-3.035,6.022-2.572c2.521,0.492,5.657,1.205,9.058,1.963c-2.319-1.771-4.375-3.686-6.229-6.021  c0.133-0.038,0.266-0.077,0.397-0.116c1.839,0.971,6.624,3.705,11.911,7.461c6.9,1.442,14.38,2.83,21.455,3.992  c-7.719-2.736-16.737-7.402-28.709-12.798c0.022-0.006,0.045-0.012,0.066-0.02c1.11,0.25,6.768,1.617,13.588,4.217  c7.647,2.824,16.828,6.943,23.914,10.057c3.078,0.507,5.984,0.964,8.591,1.419c-7.246-3.914-18.026-9.314-30.791-14.517  c0.053-0.303,23.935,7.242,34.964,15.252c5.656,0.976,9.045,2.142,9.059,2.176c-7.293-9.145-16.844-14.323-25.074-18.217  c-5.217-2.323-10.27-3.957-15.064-5.008c8.586-1.74,17.439-3.096,26.535-3.951c19.268-1.551,39.673-0.073,58.92,7.041  c19.616,7.133,38.969,17.24,59.864,25.963c41.9,18.414,91.788,22.021,137.749,10.851c22.993-5.668,45.091-15.045,64.692-27.863  c9.827-6.358,19.018-13.574,27.443-21.459c8.403-7.699,16.408-16.738,22.122-26.748c2.951-5.004,5.436-10.209,7.474-15.537  c3.815-3.039,7.582-5.858,11.672-7.791c-2.842-0.057-5.854,0.115-8.972-0.198c0.02-0.07,0.039-0.142,0.06-0.209  c1.688-0.613,7.816-2.642,14.075-1.63c5.817-1.846,12.653-2.213,19.225-0.827c-6.912-2.65-16.461-6.576-30.229-2.076  c0.512-0.238,6.458-3.857,14.558-3.908c8.505-0.342,17.99,3.818,23.832,8.482c2.802,1.17,5.366,2.586,7.635,4.043  c-5.014-6.354-15.247-15.382-30.837-15.978c-0.08-0.002,7.136-0.863,15.205,2.264c8.175,2.828,15.979,10.035,19.167,16.255  c4.704,3.7,7.19,6.918,7.251,6.848C603.002,478.849,594.683,468.263,584.661,463.151z M107.41,541.405  c1.8-0.914,3.621-1.433,5.41-1.779c-2.296,0.83-4.505,1.656-6.633,2.48C106.588,541.825,107,541.585,107.41,541.405z   M112.957,540.708c-0.33,0.111-0.65,0.225-0.979,0.338c-0.401,0.074-0.807,0.144-1.196,0.234c-1.517,0.371-2.981,0.896-4.207,1.664  c-0.712,0.258-1.409,0.52-2.108,0.778c0.212-0.264,0.441-0.512,0.681-0.748c3.513-1.325,7.048-2.584,10.603-3.77  c0.779-0.076,1.554-0.137,2.318-0.172C116.338,539.587,114.627,540.146,112.957,540.708z M149.493,545.079  c12.007,4.658,18.75,9.75,18.733,9.738c-13.236-7.541-27.892-11.953-40.441-13.691c-1.426-0.188-2.824-0.332-4.197-0.443  c1.525-0.395,3.06-0.776,4.604-1.146C136.401,540.606,143.572,542.819,149.493,545.079z M250.93,545.382  c-12.922-5.528-25.488-10.826-38.318-13.877c-12.777-3.072-25.434-3.785-37.334-3.385c-17.563,0.781-33.497,4.024-47.685,8.039  c-0.595-0.037-1.188-0.078-1.771-0.097c6.471-1.887,12.999-3.534,19.574-4.916c22.243-4.633,45.464-5.723,67.453-0.557  c21.954,5.48,41.581,15.457,61.272,23.789c2.234,0.979,4.469,1.934,6.705,2.867c0.104,0.418,0.26,0.832,0.496,1.174  c0.083,0.115,0.154,0.209,0.227,0.305C271.017,554.382,260.861,549.704,250.93,545.382z M285.633,554.456  c-0.021,0.176-0.052,0.332-0.084,0.477c-0.004,0.002-0.008,0.002-0.012,0.002c0.002,0.005,0.002,0.013,0.004,0.019h-0.002  l-0.027,0.018c0.012-0.002,0.019-0.004,0.029-0.006c-0.018,0.078-0.035,0.158-0.057,0.228c-0.033,0.098-0.08,0.211-0.129,0.325  c0.19-0.801,0.291-1.227,0.35-1.442C285.68,554.2,285.663,554.331,285.633,554.456z M285.748,553.849  c-0.492,0.101-1.261,0.259-0.652,0.13l0.025-0.019l0.1-0.076l0.201-0.149l0.388-0.287  C285.793,553.581,285.77,553.714,285.748,553.849z M286.088,552.11l-0.006,0.008l-0.011,0.014l-0.045,0.055l-0.096,0.113  c-0.024,0.137-0.065-0.086-0.063,0.176c-0.231-0.067-0.475-0.125-0.728-0.172C285.953,552.138,287.035,551.915,286.088,552.11z   M287.432,552.294c2.15-1.49,4.332-2.811,6.516-3.949c4.366-2.274,8.786-3.77,12.722-4.494c7.991-1.545,13.322,0.435,13.227,0.48  c-9.517-1.605-18.628,2.209-25.194,5.461c-2.474,1.252-4.687,2.51-6.637,3.654c-0.425-0.252-0.878-0.463-1.336-0.652  L287.432,552.294z M287.914,556.239c-0.019,0.012-0.038,0.024-0.057,0.037c-0.037-0.037-0.076-0.07-0.113-0.107  C287.742,556.171,287.808,556.196,287.914,556.239z M432.672,566.321c-32.636,10.348-66.415,12.276-97.484,7.797  c-17.062-2.162-32.886-7.168-47.909-13.082c0.366-0.074,0.673-0.137,0.767-0.158l0.003,0.002h0.015l0.057,0.004l0.899,0.031  c0.319,0.004,0.639,0,0.96-0.008c14.384,5.498,28.886,9.76,43.694,11.803c55.176,8.682,109.112-5.111,149.017-31.217  c0.043,0.387,0.083,0.756,0.124,1.113C467.046,552.921,449.988,560.845,432.672,566.321z M484.988,541.161  c-0.377,0.252-0.757,0.502-1.135,0.754c0.052-0.43,0.1-0.854,0.146-1.281c0.418-0.278,0.832-0.563,1.248-0.846  C485.165,540.261,485.077,540.716,484.988,541.161z M485.793,536.214c-0.483,0.336-0.969,0.67-1.454,1.002  c0.813-9.471,0.509-17.795-0.62-24.139c-1.396-8.32-5.784-12.84-5.764-12.853c7.993,7.656,8.406,18.945,8.456,27.648  C486.352,530.882,486.119,533.681,485.793,536.214z M520.588,510.022c-9.722,11.063-20.729,20.756-32.561,29.053  c-0.152,0.035-0.303,0.076-0.457,0.104c-0.017-0.004,2.186-1.516,4.875-4.522c14.413-10.816,26.592-23.324,35.798-36.955  c16.448-27.021,17.416-58.103,10.781-82.354c-6.622-24.606-20.058-43.338-33.173-55.651c-13.4-12.336-28.299-15.354-37.715-15.66  c-9.654-0.137-14.611,1.692-14.619,1.516c18.45-4.653,38.814,1.039,52.517,13.877c13.786,12.872,24.386,29.117,30.698,46.681  C549.77,441.149,544.004,482.399,520.588,510.022z M556.35,466.149c-4.199,1.616-7.515,3.852-10.133,6.319  c0.197-0.821,0.386-1.646,0.564-2.471c2.63-2.32,5.636-4.162,8.842-5.328c9.396-3.561,18.922-2.174,25.67,0.723  c11.9,5.313,16.313,13.068,17.388,14.931C589.331,466.521,569.868,460.632,556.35,466.149z"></path><path d="M246.747,349.782c-11.382,11.189-17.462,21.324-21.587,29.01c-1.289,2.484-2.392,4.758-3.334,6.793  c-12.189,10.164-22.53,21.586-31.158,33.187c-10.328,14.432-18.379,27.387-26.775,39.508  c-16.211,24.176-31.332,42.201-43.185,54.356c-5.493,6.498-9.587,11.365-13.182,13.925c-3.503,2.645-5.944,3.104-5.899,3.18  c6.055-0.873,11.235-4.773,15.742-8.541c4.602-4.063,8.652-7.404,13.381-11.172c9.006-7.375,17.175-15.354,24.695-23.484  c12.607-13.723,23.301-27.697,33.203-41.193c6.45-0.071,13.791-1.897,21.429-4.426c-3.35,0.082-6.505-0.235-9.032-1.297  c-0.003,0.016,6.98-0.332,15.832-1.096c7.52-2.771,15.164-5.926,22.333-8.479c-8.478,1.758-19.491,4.261-33.169,6.547  c0.745-0.188,26.192-8.317,42.115-9.381c3.104-0.828,6.027-1.418,8.638-1.596c-8.163-1.523-21.366,0.539-35.575,3.967  c0.602-0.174,6.689-2.283,14.586-3.975c8.151-1.813,19.049-2.902,25.101,0.096c5.634,0.613,7.556,4.846,7.618,4.623  c-0.627-6.428-8.078-10.063-13.615-10.779c-5.832-0.922-11.339-0.569-16.316,0.193c-9.988,1.592-18.208,4.699-24.924,7.863  c-12.866,6.155-20.297,12.674-23.573,15.764c1.415-1.938,2.815-3.863,4.204-5.775c21.623-31.063,46.965-52.183,70.324-65.346  c23.377-13.283,44.069-19.67,58.11-23.822c14.138-4.052,21.901-5.679,21.875-5.77c-38.049,0.546-76.276,10.895-106.419,30.731  c2.085-2.717,4.034-5.543,5.471-8.181c0.605-2.138,1.077-4.16,1.475-5.989c-3.055,4.822-7.653,11.793-13.86,18.597  c1.38-1.812,9.487-14.347,14.45-21.527C246.462,352.323,246.746,349.784,246.747,349.782z M237.072,422.655  c13.791-3.166,23.076,0.018,22.854,0.172c-8.142-2.244-16.621-0.66-24.166,1.1c-7.617,1.896-14.605,4.541-20.807,7.195  c-11.82,5.106-20.77,10.33-25.543,13.186c0.174-0.235,0.349-0.475,0.521-0.711C206.071,432.552,223.453,425.382,237.072,422.655z   M228.711,380.138c-0.884,0.663-1.76,1.334-2.627,2.012c3.219-5.302,6.041-10.204,8.725-14.251  c4.568-7.199,8.109-11.679,8.131-11.66C237.557,364.62,232.959,373.177,228.711,380.138z"></path><path d="M100.631,385.157c1.479,2.434,1.336,4.098,1.95,5.514c0.503,1.396,1.286,2.502,2.299,3.377  c1.894,1.754,5.169,2.48,6.332,1.646c-4.872-0.681-6.001-4.188-7.198-5.865c-0.981-1.967-1.688-3.412-1.709-3.449  c3.01,4.205,6.253,9.355,9.223,9.08c0.119-0.109,0.162-0.176,0.163-0.176c-0.646-2.148,0.438-3.107-0.183-4.5  c-0.368,0.885-0.935,1.893-1.688,3.043c-0.043-0.019,0.622-1.976,1.222-4.148c-0.659-1.199-1.81-2.36-3.192-3.258  c1.039,1.568,1.361,3.738,0.965,6.963c-0.168,0-0.649-4.992-2.83-7.949c-0.729-0.278-1.398-0.491-2.077-0.586  c1.353,1.463,2.287,3.787,2.781,6.509c-0.103-0.013-1.749-4.128-3.835-6.604C101.418,384.708,100.609,385.21,100.631,385.157z"></path><path d="M99.79,374.357c-0.132-0.958-0.699-1.84-1.631-2.335c0.396,0.938-0.023,2.683-1.952,4.149  c0.315-0.396,1.53-2.856,0.801-4.666c-0.389-0.143-0.893-0.168-1.295-0.169c0.344,0.938,0.396,2.471-0.389,3.878  c0.022,0.01,0.098-2.021-0.268-3.836c-0.877,0.109-1.378,0.376-1.381,0.371c-0.981,4.228-1.992,4.318-1.111,4.82  c0.77,0.291,2.436,0.689,3.385,0.992c-1.936-1.246-2.092-1.845-2.131-2.807c0.074-0.948,0.221-2.005,0.213-2.019  c0.235,2.711,1.467,3.899,2.214,4.912c0.133,0.038,0.21,0.061,0.21,0.061c1.926-0.438,2.943-1.418,3.293-2.479  c-0.77,0.549-1.788,1.016-3.107,1.358C96.597,376.601,98.475,375.839,99.79,374.357z"></path><path d="M87.117,367.218c1.791-0.887,2.425-2.58,1.704-4.026c-0.192,0.977-0.858,1.989-1.891,2.846  c-0.042,0.022,1.405-1.455,1.069-3.914c-1.119-0.941-2.598-1.086-3.588-0.717c0.964,0.283,2.855,1.996,1.887,4.528  c-0.018,0.037,0.143-0.79-0.425-1.752c-0.536-1.01-1.712-1.887-2.641-2.175c-0.355,0.282-0.661,0.586-0.913,0.883  c0.835,0.38,2.255,1.186,2.738,2.677c-0.262-0.311-1.728-1.331-3.104-2.155c-0.461,0.742-0.647,1.313-0.65,1.313  c2.809,3.238,2.199,4.813,2.805,3.271c-0.175-0.295,1.455-0.92,2.482-0.79c-2.19-0.518-1.887,0.134-2.758-0.7  c-0.687-0.588-1.546-1.426-1.529-1.429c2.643,1.511,3.514,1.134,4.594,2.136C87.036,367.214,87.117,367.218,87.117,367.218z"></path><path d="M67.596,361.013c-0.231,0.521-0.313,0.875-0.314,0.875c4.436,1.681,4.757-0.336,5.734-1.407  c-2.396,1.771-4.684,1.109-4.887,1.204c2.307-0.326,4.145-1.008,4.975-1.354c0.037-0.066,0.057-0.104,0.057-0.104  c-0.409-0.962-1.059-1.474-1.77-1.677c0.311,0.4,0.577,0.92,0.765,1.584c-0.005,0.029-0.511-0.934-1.389-1.625  c-0.696,0.054-1.394,0.313-1.913,0.801c0.715-0.188,1.832,0.068,2.887,1.055c-0.248-0.145-2.163-0.781-3.504-0.446  c-0.204,0.214-0.33,0.494-0.459,0.719c0.691-0.144,1.806-0.189,2.908,0.189C70.693,360.792,68.828,360.894,67.596,361.013z"></path><path d="M53.549,362.278c-0.15,0.431-0.262,0.77-0.261,0.769c4.263,2.341,4.28-1.183,4.138-1.966  c-0.668,2.598-3.525,2.088-3.465,1.943c2.127,0.063,3.104-1.648,3.458-2.104c-0.004-0.072-0.008-0.113-0.009-0.113  c-0.695-0.729-1.445-0.938-1.997-0.883c0.366,0.258,0.83,0.609,1.265,1.135c0.006-0.007-0.807-0.565-1.675-1.041  c-0.436,0.189-0.7,0.498-0.895,0.875c0.409-0.079,1.181-0.025,2.427,0.521c0.01,0.001-1.85-0.102-2.662,0.012l-0.215,0.547  c0.495,0.081,1.256,0.056,2.265,0.138C55.938,362.095,54.463,362.634,53.549,362.278z"></path><path d="M514.649,392.468c-1.669,0.695-2.451,1.375-2.462,1.369c2.137,3.252,2.459,5.26,2.731,6.578  c0.277,1.271,0.769,1.963,1.689,2.629c1.786,1.281,4.827,2.256,6.32,2.559c-3.84-2.771-5.114-5.067-6.244-6.946  c-1.062-1.845-2.347-3.613-2.335-3.66c4.521,4.106,7.189,8.793,9.069,10.707c0.219,0.041,0.345,0.059,0.345,0.059  c2.438-2.037,3.387-4.256,3.189-6.444c-0.805,1.256-2.044,2.479-3.754,3.614c-0.037-0.02,2.096-2.17,3.26-5.471  c-0.787-1.998-2.727-3.766-4.872-4.734c1.713,1.988,2.567,5.492,0.544,9.367c0.146-0.658,0.552-6.897-3.413-10.137  c-1.036-0.064-2.002,0.025-2.808,0.147c1.984,1.324,3.936,4.271,3.976,7.539C519.749,399.06,517.753,394.747,514.649,392.468z"></path><path d="M525.313,414.577c-1.205-0.281-2.317-0.424-3.361-0.326c2.582,1.666,4.63,5.199,4.814,9.109  c0.031,0.02-2.061-6.134-6.4-8.859c-2.092,0.521-2.949,1.613-2.955,1.521c3.155,2.883,3.036,5.274,3.703,6.885  c0.527,1.645,1.289,2.834,2.296,3.836c1.981,1.967,4.814,3.174,6.068,4.123c-2.926-3.904-5.043-6.885-6.387-9.463  c-1.329-2.502-2.87-4.291-2.901-4.343c5.551,4.98,8.837,11.621,9.701,14.115c0.188,0.146,0.293,0.232,0.293,0.232  c3.162-1.271,4.238-4.633,3.987-7.244c-0.826,1.397-2.095,2.676-3.936,3.674c-0.018,0.019,2.259-2.291,3.409-5.967  c-0.896-2.443-2.817-4.586-5.166-5.963c1.854,2.338,2.747,6.34,0.69,10.684C529.347,425.749,529.662,418.53,525.313,414.577z"></path><path d="M499.958,369.982c1.979,4.976,2.075,7.523,4.896,9.445c2.357,2.016,6.297,1.779,6.944,0.584  c-2.347,0.895-4.528-0.675-5.676-1.686c-1.264-1.146-2.047-2.328-2.656-3.351c-1.146-2.051-1.834-3.581-1.854-3.613  c1.749,2.329,3.177,4.646,5.081,6.383c1.744,1.829,4.328,2.564,5.352,1.978c0.096-0.13,0.133-0.204,0.133-0.205  c-1.339-1.948-0.583-3.141-1.158-4.166c-0.276,0.888-0.671,1.945-1.118,3.253c-0.063-0.036,0.128-2.05,0.602-4.194  c-0.711-1.032-1.897-2.091-3.289-2.938c1.104,1.537,1.382,3.602,1.585,6.886c-0.292,0.021-1.369-4.894-3.455-7.836  c-0.717-0.28-1.388-0.501-2.057-0.619c1.302,1.506,2.266,3.829,3.049,6.6c-0.133-0.006-2.174-4.154-4.098-6.741  C500.805,369.64,499.938,370.024,499.958,369.982z"></path><path d="M482.35,360.058c3.882,2.841,4.498,3.673,5.289,3.34c0.766-0.409,2.528-1.079,3.518-1.27  c-2.73-0.271-3.452-0.272-4.856-0.854c-1.278-0.453-2.51-1.088-2.505-1.113c3.878,0.796,6.212,1.047,7.678,1.887  c0.142-0.037,0.223-0.061,0.223-0.061c1.102-1.73,0.949-3.53-0.147-4.764c0.069,1.052-0.182,2.19-0.826,3.387  c-0.038,0.05,0.626-1.966-0.275-4.221c-1.371-0.775-3.009-0.687-4.249-0.245c1.333,0.214,3.441,1.521,3.688,4.232  c-0.37-0.787-2.622-3.391-5.112-3.451c-0.447,0.33-0.813,0.711-1.127,1.055c1.189,0.177,3.143,0.781,4.373,2.299  c-0.396-0.271-2.865-1.217-4.84-1.708C482.6,359.429,482.354,360.058,482.35,360.058z"></path><path d="M463.548,352.515c-0.614,0.336-1,0.604-1,0.604c4.688,3.912,8.155,0.831,8.611-0.21c-3.765,2.521-7.5,0.397-7.429,0.454  c3.254,0.981,6.572-0.065,7.522-0.614c0.039-0.072,0.058-0.113,0.058-0.113c-0.827-0.864-1.575-1.268-2.363-1.428  c0.35,0.41,0.649,0.869,0.941,1.514c-0.005,0.007-0.754-0.766-1.646-1.61c-0.768-0.024-1.568,0.146-2.346,0.379  c0.904,0.131,1.979,0.513,3.452,1.557c-0.025,0.006-2.739-0.896-4.409-1.195c-0.334,0.144-0.653,0.283-0.938,0.428  c0.908,0.232,2.19,0.607,3.695,1.128C467.69,353.438,465.007,353.146,463.548,352.515z"></path><path d="M447.895,358.986c2.873-0.362,3.842-0.731,4.781-1.438c0.793-0.786,1.387-1.715,1.592-2.285  c-2.396,2.306-4.947,2.871-5.411,3.076c2.443-1.399,4.589-2.674,5.481-3.249c0.029-0.077,0.044-0.12,0.044-0.12  c-0.729-0.795-1.629-1.112-2.512-1.059c0.452,0.262,0.895,0.706,1.271,1.287c-0.002,0.01-0.832-0.726-2.008-1.101  c-0.817,0.248-1.532,0.816-2.032,1.52c0.787-0.499,2.126-0.641,3.633-0.048c0.036-0.042-2.649-0.068-4.221,0.901  c-0.15,0.338-0.257,0.679-0.344,0.977c0.704-0.514,1.979-0.946,3.328-1.038c-0.274,0.063-2.235,0.834-3.449,1.519  C447.906,358.579,447.896,358.985,447.895,358.986z"></path><path d="M407.202,103.142c-1.204,12.696,4.975,7.905,7.877,7.02c-6.746,1.1-6.865-5.459-7.029-5.611  c1.88,4.436,5.828,5.045,7.446,5.41c0.184-0.092,0.289-0.146,0.289-0.146c1.562-2.574,1.827-4.574,1.377-5.975  c-0.448,1.275-1.199,2.773-2.362,4.447c0.006,0.016,1.186-2.607,1.833-5.43c-0.742-0.938-1.936-1.362-3.191-1.376  c0.768,0.97,1.282,3.138,0.377,6.852c0.067,0.032-0.549-4.749-2.021-6.752c-0.592,0.077-1.178,0.242-1.715,0.4  c0.602,1.202,1.374,3.134,1.702,5.655c0.031-0.013-1.933-2.834-2.574-5.364C408.016,102.704,407.203,103.142,407.202,103.142z"></path><path d="M388.973,94.428c3.937,3.544,4.412,4.757,5.937,5.045c1.403,0.257,3.467,0.315,4.534,0.378  c-2.995-1.35-4.409-2.166-5.933-3.188c-1.461-0.924-2.776-1.807-2.77-1.846c4.506,1.716,7.61,3.751,9.05,5.04  c0.154,0.001,0.242-0.001,0.242-0.001c1.258-1.709,1.334-3.605,0.477-5.154c-0.148,1.072-0.604,2.168-1.445,3.247  c-0.053,0.034,0.882-1.935,0.491-4.426c-1.211-1.218-3.032-1.753-4.626-1.794c1.557,0.719,3.374,2.719,3.221,5.704  c-0.229-0.884-2.149-4.577-5.188-5.446c-0.657,0.16-1.238,0.45-1.738,0.689c1.482,0.449,3.604,1.725,4.73,3.783  c-0.365-0.404-3.124-2.453-5.5-3.328C389.462,93.859,388.977,94.429,388.973,94.428z"></path><path d="M369.102,96.265c7.941-0.924,9.493-3.551,11.307-3.383c-2.588-0.443-4.693,1.041-6.575,1.598  c-1.817,0.703-3.146,1.051-3.147,1.038c4.381-2.007,8.467-3.892,9.955-2.657c0.103-0.009,0.16-0.016,0.16-0.016  c0.014-1.371-1.646-2.492-3.234-2.494c0.634,0.336,1.149,0.916,1.355,1.596c0.035,0.022-0.932-1.063-2.699-1.496  c-1.427,0.287-2.646,1.004-3.63,1.783c1.208-0.494,3.188-0.992,5.249-0.15c-0.898-0.136-4.363,0.075-6.404,1.191  c-0.373,0.385-0.707,0.757-0.99,1.107c1.226-0.496,3.078-1.223,5.201-1.419c-0.705,0.175-3.769,1.305-5.646,1.987  C369.418,95.728,369.104,96.265,369.102,96.265z"></path><path d="M363.305,95.187c-0.332-0.956-0.939-1.473-1.601-1.641c0.312,0.375,0.579,0.896,0.771,1.555  c-0.002,0.014-0.47-0.91-1.337-1.555c-0.655,0.061-1.196,0.422-1.56,0.879c0.559-0.178,1.605-0.041,2.563,0.902  c-0.242-0.135-1.916-0.639-2.994-0.309l-0.272,0.666c0.554-0.088,1.489-0.156,2.433,0.134c-0.223-0.012-1.57,0.226-2.541,0.213  c-0.135,0.478-0.173,0.816-0.173,0.816c4.228,1.729,3.681-0.355,4.595-1.407c-1.695,1.79-3.662,1.219-3.884,1.256  c2.003-0.264,3.233-1.096,3.954-1.404C363.288,95.226,363.305,95.187,363.305,95.187z"></path><path d="M441.354,24.55c0.514-1.212,0.823-2.153,0.822-2.152c-10.313-8.875-12.292,0.979-11.826,3.596  c2.868-7.487,10.188-3.907,9.993-3.795c-5.46-1.226-9.056,2.855-9.971,4.258c0.016,0.205,0.03,0.322,0.03,0.322  c2.087,2.291,3.729,3.324,5.063,3.549c-0.91-0.983-1.929-2.27-3.03-3.992c-0.001,0.006,1.987,2.021,4.113,4.023  c1.11-0.176,1.986-0.961,2.733-1.941c-1.274,0.027-3.175-0.672-6.391-3.064c0.029-0.025,4.868,1.551,7.275,1.65  c0.293-0.543,0.563-1.063,0.804-1.59c-1.397-0.324-3.488-0.775-6.149-1.652C434.813,23.751,438.864,23.317,441.354,24.55z"></path><path d="M451.075,20.251l0.741-0.694c-0.405-0.589-1.136-1.526-1.94-2.888c-0.027-0.006,1.782,1.059,2.319,2.498  c0.504-0.553,0.93-0.941,0.945-0.938c-1.567-8.433-5.058-3.379-5.616-1.805c3.142-3.221,5.122,1.053,5.004,1.075  c-1.845-2.372-4.472-1.267-5.062-0.784c0.034,0.135-0.063,0.291-0.099,0.316c-0.071,1.785,0.455,3.087,0.883,3.625  c-0.083-0.871-0.118-1.957-0.046-3.313c-0.002,0,0.186,1.844,0.484,3.688c0.507,0.271,1.085,0.11,1.654-0.24  c-0.511-0.365-1.099-1.41-1.678-3.844C448.663,16.949,450.183,19.452,451.075,20.251z"></path><path d="M461.482,16.239c-0.063,0.05-0.097,0.079-0.097,0.079c0.354,1.099,0.782,1.784,1.258,2.268  c-0.051-0.47-0.072-1.054-0.014-1.754c-0.019,0.017,0.331,1.033,0.419,2.139c0.479,0.351,0.955,0.613,1.511,0.862  c-0.334-0.55-0.604-1.434-1.335-3.019c0.104-0.062,1.793,2.146,2.021,3.386c0.267,0.129,0.464,0.307,0.707,0.451  c-0.039-0.775-0.348-1.929-1.192-3.266c0.054-0.09,1.92,2.045,1.561,3.527c0.456,0.394,0.827,0.705,0.825,0.701  c1.492-2.717-0.518-5.483-2.144-5.879c-1.672-0.617-2.92,0.084-3.371,0.395c2.077-0.496,4.097,0.686,4.841,1.996  c0.785,1.324,0.558,2.363,0.594,2.334C466.607,16.708,462.283,15.969,461.482,16.239z"></path><path d="M475.6,27.542c-0.028-0.477,0.249-1.092,1-2.21c0.032,0.023-0.49,1.665-0.521,2.55l0.55,0.314  c0.082-0.516,0.232-1.241,0.537-2.17c-0.001,0.007,0.123,1.414-0.24,2.313c0.416,0.189,0.731,0.291,0.731,0.291  c2.957-3.409-0.431-4.553-1.42-4.207c2.834,1.09,1.419,3.639,1.464,3.559c0.388-1.85-0.958-3.303-1.608-3.518  c-0.063,0.021-0.097,0.035-0.097,0.035c-0.521,1.02-0.955,1.241-1.028,1.744c0.325-0.303,0.76-0.674,1.301-1.066  c0.016-0.015-0.648,0.732-1.313,1.406C475.007,26.894,475.256,27.278,475.6,27.542z"></path></svg>